<svg width="20" height="20" viewBox="0 0 20 20" fill="none" xmlns="http://www.w3.org/2000/svg">
<path d="M15.2041 6.81689H16.5152C16.332 6.5566 16.1392 6.31559 15.9368 6.07458L15.2041 6.81689Z" fill="#002535"/>
<path d="M14.9259 5.05254C14.6849 4.8501 14.4439 4.65729 14.1836 4.47412V5.78521L14.9259 5.05254Z" fill="#002535"/>
<path d="M15.9472 6.07547L18.7911 3.23156C19.0707 2.95199 19.0707 2.48925 18.7911 2.20968C18.5115 1.93011 18.0488 1.93011 17.7692 2.20968L14.9253 5.05359C15.2916 5.37172 15.629 5.71877 15.9472 6.07547Z" fill="#002535"/>
<path d="M14.185 3.68323C14.185 3.28798 13.8572 2.96021 13.4619 2.96021C13.0763 2.96021 12.7678 3.2687 12.7485 3.64467C13.2498 3.88568 13.7319 4.15561 14.185 4.47374V3.68323Z" fill="#002535"/>
<path d="M18.0417 7.53943C18.0417 7.14418 17.714 6.81641 17.3187 6.81641H16.5186C16.8367 7.2695 17.1163 7.75152 17.3476 8.25282C17.7332 8.23354 18.0417 7.92505 18.0417 7.53943Z" fill="#002535"/>
<path d="M9.36377 15.0115H9.65298C10.029 15.0115 10.3278 14.6741 10.3278 14.2596C10.3278 13.739 10.1832 13.6619 9.85543 13.5462L9.36377 13.3727V15.0115Z" fill="#002535"/>
<path d="M18.3553 5.53357C18.3456 5.53357 18.336 5.54321 18.3167 5.54321H14.4606C14.3642 5.54321 14.2774 5.52393 14.181 5.48537C14.0075 5.40825 13.8629 5.27328 13.7857 5.09012C13.7568 5.00335 13.7375 4.91659 13.7375 4.82019V0.964037C13.7375 0.954397 13.7472 0.944756 13.7472 0.925476C12.4939 0.337413 11.1057 0 9.64037 0C4.31889 0 0 4.31889 0 9.64037C0 14.9619 4.31889 19.2807 9.64037 19.2807C14.9619 19.2807 19.2807 14.9619 19.2807 9.64037C19.2807 8.17503 18.9433 6.78682 18.3553 5.53357ZM11.3274 9.46684C11.9444 9.67893 12.7735 10.132 12.7735 11.5492C12.7735 12.7542 11.8191 13.7472 10.6526 13.7472H10.3634V13.9882C10.3634 14.3834 10.0356 14.7112 9.64037 14.7112C9.24512 14.7112 8.91734 14.3834 8.91734 13.9882V13.7472H8.84022C7.55805 13.7472 6.50725 12.6674 6.50725 11.3371C6.50725 10.9322 6.83502 10.6044 7.23028 10.6044C7.62553 10.6044 7.95331 10.9322 7.95331 11.3274C7.95331 11.8577 8.34856 12.2915 8.84022 12.2915H8.91734V10.1513L7.95331 9.8139C7.33632 9.60181 6.50725 9.14871 6.50725 7.73158C6.50725 6.52653 7.46165 5.53357 8.62813 5.53357H8.91734V5.3022C8.91734 4.90695 9.24512 4.57918 9.64037 4.57918C10.0356 4.57918 10.3634 4.90695 10.3634 5.3022V5.54321H10.4405C11.7227 5.54321 12.7735 6.62293 12.7735 7.95331C12.7735 8.34856 12.4457 8.67633 12.0505 8.67633C11.6552 8.67633 11.3274 8.34856 11.3274 7.95331C11.3274 7.42309 10.9322 6.98927 10.4405 6.98927H10.3634V9.12943L11.3274 9.46684Z" fill="#002535"/>
<path d="M6.95361 10.4604C6.95361 10.981 7.09822 11.0581 7.42599 11.1738L7.91765 11.3474V9.7085H7.62844C7.2621 9.7085 6.95361 10.0459 6.95361 10.4604Z" fill="#002535"/>
</svg>
