<svg width="26" height="30" viewBox="0 0 26 30" fill="none" xmlns="http://www.w3.org/2000/svg">
<path d="M25.6098 9.80488C24.0732 3.0439 18.1756 0 12.9951 0C12.9951 0 12.9951 0 12.9805 0C7.8146 0 1.90241 3.02927 0.365822 9.79024C-1.34637 17.3415 3.27802 23.7366 7.46338 27.761C9.0146 29.2537 11.0049 30 12.9951 30C14.9854 30 16.9756 29.2537 18.5122 27.761C22.6976 23.7366 27.322 17.3561 25.6098 9.80488ZM12.9951 17.1366C10.4488 17.1366 8.38533 15.0732 8.38533 12.5268C8.38533 9.98049 10.4488 7.91707 12.9951 7.91707C15.5415 7.91707 17.6049 9.98049 17.6049 12.5268C17.6049 15.0732 15.5415 17.1366 12.9951 17.1366Z" fill="white"/>
</svg>
