<svg width="45" height="45" viewBox="0 0 45 45" fill="none" xmlns="http://www.w3.org/2000/svg">
<circle cx="22.5" cy="22.5" r="22.5" fill="#BFD2D9"/>
<path d="M27.6673 23.5202V28.8113C27.6673 29.2794 27.6153 29.7214 27.4983 30.1244C27.0173 32.0354 25.4313 33.2314 23.2473 33.2314H19.7112L15.7851 35.8445C15.2001 36.2475 14.4201 35.8185 14.4201 35.1165V33.2314C13.0941 33.2314 11.989 32.7894 11.222 32.0224C10.442 31.2424 10 30.1374 10 28.8113V23.5202C10 21.0502 11.534 19.3472 13.9001 19.1262C14.0691 19.1132 14.2381 19.1002 14.4201 19.1002H23.2473C25.8993 19.1002 27.6673 20.8682 27.6673 23.5202Z" fill="#002535"/>
<path d="M30.4752 27.6803C32.1262 27.6803 33.5173 27.1343 34.4793 26.1593C35.4543 25.1973 36.0003 23.8063 36.0003 22.1552V15.5251C36.0003 12.47 33.5303 10 30.4752 10H19.425C16.3699 10 13.8999 12.47 13.8999 15.5251V16.5001C13.8999 16.8641 14.1859 17.1501 14.5499 17.1501H23.2471C26.7701 17.1501 29.6172 19.9972 29.6172 23.5203V27.0303C29.6172 27.3943 29.9032 27.6803 30.2672 27.6803H30.4752Z" fill="#002535"/>
</svg>
