<svg width="278" height="460" viewBox="0 0 278 460" fill="none" xmlns="http://www.w3.org/2000/svg">
<path d="M91.7554 182.687L91.439 182.718C88.4829 182.989 73.7162 188.937 62.6514 174.784C62.6514 174.784 69.8471 145.9 80.8035 144.831C80.8035 144.831 85.6851 143.084 90.4129 144.587C95.1408 146.09 105.505 148.477 109.908 142.47C109.908 142.47 116.891 151.158 121.185 152.124C121.185 152.124 127.965 152.232 133.967 139.577C133.967 139.577 138.908 143.567 143.31 143.35C147.712 143.134 157.598 139.789 163.288 142.687C168.979 145.584 173.598 146.654 182.299 172.713C182.299 172.713 172.419 186.762 152.228 181.288L152.44 195.657L91.222 195.554L91.7554 182.687Z" fill="#CC4F92"/>
<path d="M102.152 124.048C102.152 124.048 103.01 132.415 110.852 142.493L107.951 145.07C107.951 145.07 108.918 164.585 122.772 167.374C122.772 167.374 130.722 168.66 134.157 159.76C136.277 154.106 137.579 148.179 138.026 142.159C138.026 142.159 133.619 141.193 134.478 139.158C135.337 137.122 139.667 125.763 139.667 125.763L138.271 109.033L107.015 105.819C104.969 108.347 103.478 111.276 102.64 114.417C101.802 117.557 101.636 120.839 102.152 124.048Z" fill="#F6E6F1"/>
<path d="M109.198 144.131C109.198 144.131 118.062 156.917 123.847 154.349C129.633 151.781 135.599 141.076 135.599 141.076L133.664 139.632C133.664 139.632 127.947 150.567 122.306 151.366C122.306 151.366 118.387 153.401 110.843 142.488L109.175 144.127" fill="#E9C1D9"/>
<path d="M103.241 130.055C103.241 130.055 109.198 120.726 109.04 115.414C109.04 115.414 133.203 117.025 136.991 114.611L139.667 125.763L138.058 110.269C138.058 110.269 115.743 111.623 114.292 110.59C112.841 109.556 107.688 106.808 107.688 106.808L101.889 126.033L103.241 130.055Z" fill="#E9C1D9"/>
<path d="M207.041 16.0803V63.8607H108.877L93.9475 73.9881L97.3284 63.8607H93.4639V16.0803H207.041Z" fill="#EFF1F2"/>
<path d="M93.4639 16.0803C93.4639 16.0803 104.361 60.7602 207.041 45.0365V63.8562H108.872L93.9565 73.9881L97.3375 63.8562H93.4729L93.4639 16.0803Z" fill="#EAD3E4"/>
<path d="M207.041 16.0803V63.8607H108.877L93.9475 73.9881L97.3284 63.8607H93.4639V16.0803H207.041Z" stroke="#222221" stroke-width="3" stroke-linejoin="bevel"/>
<path d="M223.015 435.462H227.847L227.847 272.028H223.015L223.015 435.462Z" fill="#EFF1F2" stroke="#222221" stroke-width="3" stroke-linejoin="bevel"/>
<path d="M212.384 408.04H216.551L216.551 272.028H212.384L212.384 408.04Z" fill="#EFF1F2" stroke="#222221" stroke-width="3" stroke-linejoin="bevel"/>
<path d="M32.7698 274.601H27.938V439.325H32.7698V274.601Z" fill="#EFF1F2" stroke="#222221" stroke-width="3" stroke-linejoin="bevel"/>
<path d="M43.4052 274.601H39.2378V411.687H43.4052V274.601Z" fill="#EFF1F2" stroke="#222221" stroke-width="3" stroke-linejoin="bevel"/>
<path d="M181.138 221.612L210.888 221.838L228.611 270.738L27.0659 269.289L38.8268 220.547L59.8808 220.705" fill="#EFF1F2"/>
<path d="M181.138 221.612L210.888 221.838L228.611 270.738L27.0659 269.289L38.8268 220.547L59.8808 220.705" stroke="#222221" stroke-width="3" stroke-linejoin="bevel"/>
<path d="M63.9348 177.704L56.0927 211.81C56.0927 211.81 55.2339 216.743 58.3527 219.103C61.4714 221.463 78.6473 230.255 78.6473 230.255L72.0933 195.721L76.3873 195.418L79.7185 184.695C79.7185 184.695 67.7994 180.814 63.9348 177.704Z" fill="#F6E6F1"/>
<path d="M69.5445 180.976C69.5445 180.976 58.9135 209.287 64.2832 214.649C69.6529 220.01 78.3539 225.268 78.3539 225.268L78.8872 230.093L60.3102 220.335C60.3102 220.335 54.832 217.009 55.7902 212.722C56.7485 208.434 60.6221 193.414 60.6221 193.414L64.5951 178.187L69.5445 180.976Z" fill="#E9C1D9"/>
<path d="M163.202 183.445L167.925 194.168L172.445 195.563L166.005 229.127L184.799 219.369C184.799 219.369 188.866 216.689 188.451 212.934C188.035 209.179 183.189 186.875 183.189 186.875L180.45 175.908C180.45 175.908 170.836 183.129 163.211 183.445" fill="#F6E6F1"/>
<path d="M173.404 181.297C173.404 181.297 182.964 204.034 179.207 208.967C175.451 213.899 167.822 220.119 167.713 220.443C167.605 220.768 165.996 229.664 165.996 229.664L186.616 218.404C186.616 218.404 189.409 214.116 188.98 211.968C188.55 209.82 180.441 175.908 180.441 175.908C180.441 175.908 175.447 181.428 173.404 181.297Z" fill="#E9C1D9"/>
<path d="M111.164 378.841L114.825 390.909C115.153 391.987 115.088 393.147 114.642 394.183C114.196 395.218 113.398 396.063 112.389 396.568C111.765 396.879 111.08 397.05 110.382 397.069C109.685 397.088 108.991 396.955 108.351 396.678C107.71 396.402 107.138 395.989 106.674 395.469C106.209 394.949 105.865 394.333 105.663 393.666L101.496 379.802L111.164 378.841Z" fill="#EFF1F2" stroke="#222221" stroke-width="3" stroke-linejoin="bevel"/>
<path d="M91.4526 158.821V221.03" stroke="#222221" stroke-width="3" stroke-linejoin="bevel"/>
<path d="M152.314 157.869V221.03" stroke="#222221" stroke-width="3" stroke-linejoin="bevel"/>
<path d="M77.3862 220.836L167.284 221.509" stroke="#222221" stroke-width="3" stroke-linejoin="bevel"/>
<path d="M228.642 269.289H26.1934V276.045H228.642V269.289Z" fill="#222221"/>
<path d="M86.3314 284.02H82.4126V400.684H86.3314V284.02Z" fill="#EFF1F2" stroke="#222221" stroke-width="3" stroke-linejoin="bevel"/>
<path d="M94.96 284.02H91.5791V381.106H94.96V284.02Z" fill="#EFF1F2" stroke="#222221" stroke-width="3" stroke-linejoin="bevel"/>
<path d="M166.525 402.485H170.443L170.443 285.821H166.525V402.485Z" fill="#EFF1F2" stroke="#222221" stroke-width="3" stroke-linejoin="bevel"/>
<path d="M157.896 382.911H161.277V285.825H157.896V382.911Z" fill="#EFF1F2" stroke="#222221" stroke-width="3" stroke-linejoin="bevel"/>
<path d="M74.9141 274.118C74.9141 274.118 95.7059 383.665 97.6314 384.631C99.5569 385.597 116.48 377.861 116.48 377.861L111.164 274.104L74.9141 274.118Z" fill="#222221"/>
<path d="M67.6638 275.562C67.6638 275.562 42.5328 293.904 55.5955 295.835C68.6582 297.767 87.0137 276.045 87.0137 276.045L67.6638 275.562Z" fill="#222221"/>
<path d="M101.979 276.045L124.697 286.182L125.18 275.562L101.979 276.045Z" fill="#EFF1F2" stroke="#222221" stroke-width="3" stroke-linejoin="bevel"/>
<path d="M124.751 275.458L124.697 293.904L133.881 293.421L133.99 275.458H124.751Z" fill="#EFF1F2" stroke="#222221" stroke-width="3" stroke-linejoin="bevel"/>
<path d="M133.881 290.04L192.844 302.591C192.844 302.591 205.414 281.831 184.631 274.118L134.008 275.472L133.881 290.04Z" fill="#222221"/>
<path d="M64.3372 177.596L56.0476 211.214C55.6119 213.075 55.8159 215.029 56.6267 216.76C57.4375 218.491 58.8081 219.9 60.5179 220.759L79.226 230.183L72.0302 195.116L77.1829 194.791L79.9763 183.959C79.9763 183.959 68.6312 183.12 64.3372 177.596Z" stroke="#222221" stroke-width="3" stroke-linejoin="bevel"/>
<path d="M180.442 175.908L188.55 210.596C188.986 212.458 188.781 214.411 187.971 216.143C187.16 217.875 185.79 219.285 184.08 220.146L165.372 229.564L172.572 194.516L168.595 194.624L162.398 183.341C162.398 183.341 175.375 181.378 180.442 175.908Z" stroke="#222221" stroke-width="3" stroke-linejoin="bevel"/>
<path d="M140.842 118.244C140.842 131.567 128.091 151.677 122.089 151.677C114.965 151.677 101.089 132.234 101.089 118.916C101.089 105.598 108.773 95.5202 121.338 95.5202C133.904 95.5202 140.842 104.903 140.842 118.244Z" stroke="#222221" stroke-width="3" stroke-linejoin="bevel"/>
<path d="M117.212 121.326C117.212 121.326 110.088 116.457 104.836 121.701" stroke="#222221" stroke-width="3" stroke-linejoin="bevel"/>
<path d="M127.341 121.326C127.341 121.326 129.962 117.206 136.34 120.202" stroke="#222221" stroke-width="3" stroke-linejoin="bevel"/>
<path d="M107.697 144.961C106.888 146.577 111.765 168.348 124.733 167.527C137.701 166.706 137.8 141.911 137.8 141.911" stroke="#222221" stroke-width="3" stroke-linejoin="bevel"/>
<path d="M104.863 146.194C103.892 148.13 109.614 174.134 125.135 173.164C140.657 172.194 140.634 143.129 140.634 143.129" stroke="#222221" stroke-width="3" stroke-linejoin="bevel"/>
<path d="M111.797 130.402C112.281 130.402 112.674 129.766 112.674 128.981C112.674 128.195 112.281 127.559 111.797 127.559C111.313 127.559 110.92 128.195 110.92 128.981C110.92 129.766 111.313 130.402 111.797 130.402Z" fill="#222221"/>
<path d="M131.328 130.19C131.812 130.19 132.204 129.554 132.204 128.768C132.204 127.983 131.812 127.347 131.328 127.347C130.843 127.347 130.451 127.983 130.451 128.768C130.451 129.554 130.843 130.19 131.328 130.19Z" fill="#222221"/>
<path d="M114.839 80.6676C100.501 87.5862 102.757 92.8936 99.5342 99.4918C96.5284 105.639 96.1487 113.004 102.111 127.157C104.499 121.378 106.387 115.405 107.751 109.303C107.751 109.303 121.112 116.94 137.353 108.793C138.098 112.625 140.01 123.145 139.486 127.32C139.486 127.32 143.396 117.621 141.186 106.6C143.138 105.334 144.993 103.925 146.736 102.385C166.877 84.6888 129.176 73.7535 114.839 80.6676Z" fill="#222221"/>
<path d="M98.0831 85.3341C98.4175 86.6519 98.6933 87.9517 98.9599 89.2515C99.2266 90.5513 99.4888 91.833 99.7826 93.1102C100.076 94.3874 100.366 95.6556 100.741 96.9012C101.107 98.1691 101.56 99.4101 102.097 100.616C101.091 99.6755 100.289 98.5406 99.7374 97.2803C99.1634 96.0401 98.7298 94.7398 98.4447 93.4036C98.1477 92.0812 97.9647 90.7359 97.8977 89.3824C97.8127 88.0302 97.8748 86.6729 98.0831 85.3341Z" fill="#222221"/>
<path d="M103.883 82.9196C103.883 82.9196 99.6925 91.9459 101.948 98.3635" stroke="#222221" stroke-width="3" stroke-linejoin="bevel"/>
<path d="M139.97 106.085C141.028 106.222 142.053 106.544 142.998 107.038C143.955 107.521 144.838 108.138 145.62 108.87C146.411 109.619 147.063 110.502 147.545 111.479C148.013 112.454 148.233 113.53 148.187 114.611C147.737 113.707 147.216 112.841 146.628 112.02C146.037 111.249 145.389 110.523 144.689 109.849C143.974 109.181 143.22 108.55 142.429 107.936C141.638 107.322 140.824 106.722 139.97 106.085Z" fill="#222221"/>
<path d="M138.361 105.12C139.453 104.698 140.616 104.487 141.787 104.497C142.973 104.487 144.152 104.673 145.276 105.047C146.42 105.429 147.471 106.044 148.364 106.853C148.576 107.065 148.788 107.277 148.992 107.489C149.195 107.701 149.344 107.972 149.516 108.211C149.597 108.338 149.683 108.455 149.756 108.581C149.828 108.708 149.887 108.843 149.945 108.983C150.068 109.249 150.185 109.515 150.284 109.786C150.054 109.592 149.833 109.398 149.643 109.204C149.539 109.109 149.444 109.005 149.349 108.911C149.254 108.816 149.127 108.739 149.019 108.653L148.386 108.139C148.151 107.995 147.934 107.846 147.708 107.688C146.809 107.123 145.845 106.669 144.838 106.334C143.814 105.995 142.765 105.735 141.701 105.557C140.621 105.363 139.513 105.237 138.361 105.12Z" fill="#222221"/>
<path d="M110.382 142.389C110.382 142.389 107.485 149.064 94.3135 145.426C81.1423 141.789 72.8663 142.601 63.0806 173.71C63.0806 173.71 68.0525 188.536 91.7597 182.073" stroke="#222221" stroke-width="3" stroke-linejoin="bevel"/>
<path d="M134.243 139.225C135.721 141.116 137.574 144.262 150.117 142.213C163.334 140.056 172.428 141.094 181.997 172.203C181.997 172.203 175.144 187.168 151.952 180.705" stroke="#222221" stroke-width="3" stroke-linejoin="bevel"/>
<path d="M130.41 149.145C132.367 149.145 133.954 148.28 133.954 147.214C133.954 146.147 132.367 145.282 130.41 145.282C128.453 145.282 126.866 146.147 126.866 147.214C126.866 148.28 128.453 149.145 130.41 149.145Z" fill="#222221"/>
<path d="M133.42 147.128C133.42 147.128 139.866 143.373 140.829 126.214" stroke="#222221" stroke-width="3" stroke-linejoin="bevel"/>
<path d="M145.28 113.654C146.026 106.627 145.873 86.9814 120.638 87.1574C93.4275 87.347 94.5349 108.572 95.1406 113.415C93.8219 114.094 92.7157 115.122 91.9432 116.387C91.1706 117.652 90.7616 119.105 90.7607 120.586V123.023C90.7607 125.165 91.6127 127.218 93.1291 128.732C94.6456 130.247 96.7024 131.097 98.8469 131.097H101.288V112.512H100.456C100.61 107.737 102.156 90.8492 116.556 92.519C132.792 94.3874 139.951 88.8092 141.552 113.04H139.744V131.625H142.184C144.329 131.625 146.386 130.775 147.902 129.26C149.419 127.746 150.271 125.693 150.271 123.551V121.114C150.271 119.517 149.797 117.956 148.909 116.628C148.02 115.3 146.758 114.265 145.28 113.654Z" fill="#CC4F92"/>
<path d="M79.4473 66.7536H26.6045V130.456H79.4473V66.7536Z" fill="#EFF1F2"/>
<path d="M106.513 28.4688H192.225" stroke="#222221" stroke-width="3" stroke-linejoin="bevel"/>
<path d="M106.513 33.4332H192.225" stroke="#222221" stroke-width="3" stroke-linejoin="bevel"/>
<path d="M106.513 38.3976H192.225" stroke="#222221" stroke-width="3" stroke-linejoin="bevel"/>
<path d="M106.513 42.9108H192.225" stroke="#222221" stroke-width="3" stroke-linejoin="bevel"/>
<path d="M106.513 46.9726H192.225" stroke="#222221" stroke-width="3" stroke-linejoin="bevel"/>
<path d="M247.644 87.5049H182.878V165.203H247.644V87.5049Z" fill="#CC4F92"/>
<path d="M105.044 393.061L106.49 403.681L91.9902 427.325C91.9902 427.325 94.4084 436.979 106.49 430.705C118.572 424.432 117.609 410.437 117.609 410.437L122.441 409.954L116.642 391.13C116.642 391.13 108.425 400.765 105.044 393.061Z" fill="#222221"/>
<path d="M26.6045 66.7536C26.6045 66.7536 47.8709 118.045 79.4473 112.562V129.712H26.6045V66.7536Z" fill="#EAD3E4"/>
<path d="M52.3818 79.3001C52.3818 79.3001 46.2618 89.3824 36.9146 90.6686C36.9146 90.6686 38.4423 119.322 52.1694 120.482C64.8253 121.556 68.2785 90.452 68.2785 90.452C68.2785 90.452 56.8928 89.5945 52.3818 79.3001Z" fill="#CC4F92"/>
<path d="M79.4473 66.7536H26.6045V130.456H79.4473V66.7536Z" stroke="#222221" stroke-width="3" stroke-linejoin="bevel"/>
<path d="M52.3818 79.3001L52.1694 120.5C52.1694 120.5 40.3 122.306 36.9146 90.6867C36.9146 90.6686 45.4528 89.5945 52.3818 79.3001Z" fill="#CD629C"/>
<path d="M44.6484 98.6027L52.2194 106.167L66.2358 81.5521" stroke="#222221" stroke-width="3" stroke-linejoin="bevel"/>
<path d="M182.878 87.5049C182.878 87.5049 192.008 146.225 247.644 141.261V165.18H182.878V87.5049Z" fill="#AD3E7E"/>
<path d="M189.644 147.827C189.644 147.827 202.214 136.73 210.91 142.52C219.607 148.31 212.361 130.456 224.922 132.866C237.483 135.276 243.775 154.101 243.775 154.101V160.378H189.16C189.16 160.378 188.437 146.622 189.644 147.827Z" fill="#3A3A38"/>
<path d="M214.78 125.632C219.585 125.632 223.48 121.742 223.48 116.944C223.48 112.146 219.585 108.256 214.78 108.256C209.974 108.256 206.079 112.146 206.079 116.944C206.079 121.742 209.974 125.632 214.78 125.632Z" fill="#EFF1F2"/>
<path d="M200.524 141.608C200.524 141.608 208.334 153.712 217.519 149.804C217.519 149.804 239.323 158.83 240.747 147.295L243.78 154.101V160.378H189.161L189.247 148.125C189.247 148.125 194.643 143.188 200.524 141.608Z" fill="#222221"/>
<path d="M210.59 111.312C210.59 111.312 205.356 121.448 217.519 124.666C217.519 124.666 202.043 123.619 210.59 111.312Z" fill="#F6E6F1"/>
<path d="M117.212 82.9196C117.212 82.9196 128.155 75.0397 143.084 83.9396C158.014 92.8394 146.736 100.092 146.736 100.092C146.736 100.092 139.997 81.0421 117.212 82.9196Z" fill="#424240"/>
<path d="M112.262 89.8969C112.262 89.8969 131.273 85.6004 139.649 95.7098H138.36C138.36 95.7098 132.023 88.2406 112.262 89.8969Z" fill="#D172A6"/>
<path d="M141.859 114.412C141.859 114.412 149.995 115.698 149.317 122.084C148.639 128.471 146.325 118.609 141.859 114.412Z" fill="#D172A6"/>
<path d="M95.2902 114.399C95.2902 114.399 89.4956 122.224 92.4968 125.013C95.4981 127.803 95.2902 114.399 95.2902 114.399Z" fill="#D172A6"/>
<path d="M110.382 96.9148C110.382 96.9148 110.188 96.9735 109.867 97.1089C108.14 97.8355 102.662 100.841 102.585 109.786C102.603 109.786 109.039 103.671 110.382 96.9148Z" fill="#424240"/>
<path d="M123.526 122.612L120.737 136.535L118.586 138.729C118.586 138.729 124.936 142.375 124.742 140.268C124.548 138.16 123.739 138.914 123.63 136.129C123.522 133.345 124.082 122.238 124.082 122.238L123.526 122.612Z" fill="#E9C1D9"/>
<path d="M124.34 122.075C124.34 122.075 122.839 135.931 124.715 139.677C126.591 143.423 118.337 138.553 118.337 138.553" stroke="#222221" stroke-width="3" stroke-linejoin="bevel"/>
<path d="M150.284 158.821V192.67H103.882C103.882 192.67 131.807 184.158 150.284 158.821Z" fill="#AD3E7E"/>
<path d="M89.0434 156.222V180.028C89.0434 180.028 77.2464 185.178 70.0596 176.811C62.8729 168.443 81.1154 174.883 89.0434 156.222Z" fill="#AD3E7E"/>
<path d="M154.583 179.622C154.583 179.622 173.164 183.481 179.931 171.259C179.931 171.259 157.805 155.405 155.658 158.171C153.511 160.938 154.583 179.622 154.583 179.622Z" fill="#AD3E7E"/>
<path d="M102.997 148.152C102.997 148.152 105.898 172.279 123.377 174.856C123.377 174.856 105.749 175.258 97.1974 152.331C97.1793 152.331 95.4256 147.426 102.997 148.152Z" fill="#AD3E7E"/>
<path d="M106.942 147.579C106.942 147.579 108.877 168.01 123.377 169.296C123.395 169.305 109.442 171.797 106.942 147.579Z" fill="#AD3E7E"/>
<path d="M128.367 146.541C128.367 146.541 128.62 146.46 128.995 146.352C130.103 146.036 132.295 145.521 132.476 146.302C132.72 147.349 129.497 148.31 128.367 146.541Z" fill="#424240"/>
<path d="M59.9034 225.069L40.4675 224.614L31.4141 265.85H221.682L208.307 226.279H177.698L170.285 234.908L171.768 253.304L78.6205 254.057L77.3866 234.457L59.9034 225.069Z" fill="#EAD3E4"/>
<path d="M81.8115 254.224C81.8115 254.224 137.208 278.243 162.773 252.735H81.8115V254.224Z" fill="#E9C1D9"/>
<path d="M167.329 221.477L161.914 247.143L82.6475 247.734L72.0166 195.134L172.866 195.238L167.329 221.477Z" fill="#EFF1F2" stroke="#222221" stroke-width="3" stroke-linejoin="bevel"/>
<path d="M162.773 247.572H81.7891V252.721H162.773V247.572Z" fill="#EFF1F2" stroke="#222221" stroke-width="3" stroke-linejoin="bevel"/>
<path d="M78.6201 199.34H165.941L156.757 242.237L85.6532 243.524L78.6201 199.34Z" fill="#E9C1D9"/>
<path d="M123.006 237.119C130.081 237.119 135.816 231.393 135.816 224.329C135.816 217.265 130.081 211.539 123.006 211.539C115.932 211.539 110.197 217.265 110.197 224.329C110.197 231.393 115.932 237.119 123.006 237.119Z" stroke="#222221" stroke-width="3" stroke-linejoin="bevel"/>
<path d="M119.671 214.775C119.671 214.775 108.723 228.269 126.546 235.364C126.559 235.364 103.345 229.267 119.671 214.775Z" fill="#D8ADC9"/>
<path d="M83.8003 248.984L84.3743 251.236H161.236V249.413L83.8003 248.984Z" fill="#D8ADC9"/>
<path d="M69.4131 278.157C69.4131 278.157 54.8001 285.45 55.2295 291.561C55.2295 291.548 72.8528 288.88 69.4131 278.157Z" fill="#424240"/>
<path d="M108.267 290.595L92.4468 294.779L102.915 379.716L114.355 375.695L108.267 290.595Z" fill="#424240"/>
<path d="M138.523 280.874L139.536 280.978L190.399 286.182C190.399 286.182 196.673 293.01 189.043 299.446L139.003 288.352L138.523 280.874Z" fill="#424240"/>
<path d="M110.649 277.729L122.975 283.275L122.518 278.157L110.649 277.729Z" fill="#E9C1D9"/>
<path d="M126.545 278.771L126.035 292.044L131.834 291.561L132.159 278.771H126.545Z" fill="#E9C1D9"/>
<path d="M29.4521 270.738H226.97L29.4521 274.118V270.738Z" fill="#424240"/>
<path d="M29.0229 276.28L29.1811 282.526L31.6807 278.744V276.28H29.0229Z" fill="#EAD3E4"/>
<path d="M40.2188 276.28V281.533L42.5827 283.329L42.42 276.388L40.2188 276.28Z" fill="#EAD3E4"/>
<path d="M83.502 323.252L85.1156 330.41L85.4365 358.157L83.502 362.02V323.252Z" fill="#EAD3E4"/>
<path d="M92.4468 367.49L93.8118 371.994V376.498H92.4468V367.49Z" fill="#EAD3E4"/>
<path d="M104.447 383.895L110.246 381.81L112.823 390.254C112.823 390.254 107.67 395.48 104.447 383.895Z" fill="#EAD3E4"/>
<path d="M158.66 295.903L160.35 296.467V315.048L158.981 310.061L158.66 295.903Z" fill="#EAD3E4"/>
<path d="M167.415 297.835L169.67 298.317V315.314L167.415 312.367V297.835Z" fill="#EAD3E4"/>
<path d="M213.274 276.763H215.372V301.134L213.274 298.638V276.763Z" fill="#EAD3E4"/>
<path d="M224.312 276.763H226.567V304.351L224.312 301.856V276.763Z" fill="#EAD3E4"/>
<path d="M107.964 108.82C107.964 108.82 120.425 91.8736 132.665 93.5931L133.117 96.3777L142.334 97.0321C142.334 97.0321 149.85 108.184 136.318 111.619C122.785 115.053 111.616 116.542 107.964 108.82Z" fill="#222221"/>
<path d="M116.344 98.3861C116.344 98.3861 141.615 95.9986 141.868 100.115C142.121 104.231 128.932 114.182 117.212 112.521C105.492 110.86 109.79 98.8374 116.344 98.3861Z" fill="#424240"/>
</svg>
