<svg width="18" height="20" viewBox="0 0 18 20" fill="none" xmlns="http://www.w3.org/2000/svg">
<path d="M17.0732 6.53659C16.0488 2.02927 12.1171 0 8.66342 0C8.66342 0 8.66342 0 8.65367 0C5.20974 0 1.26827 2.01951 0.243881 6.52683C-0.897582 11.561 2.18534 15.8244 4.97559 18.5073C6.00974 19.5024 7.33659 20 8.66342 20C9.99025 20 11.3171 19.5024 12.3415 18.5073C15.1317 15.8244 18.2146 11.5707 17.0732 6.53659ZM8.66342 11.4244C6.96586 11.4244 5.59022 10.0488 5.59022 8.35122C5.59022 6.65366 6.96586 5.27805 8.66342 5.27805C10.361 5.27805 11.7366 6.65366 11.7366 8.35122C11.7366 10.0488 10.361 11.4244 8.66342 11.4244Z" fill="#002535"/>
</svg>
