<svg width="68" height="68" viewBox="0 0 68 68" fill="none" xmlns="http://www.w3.org/2000/svg">
<g filter="url(#filter0_d_58_2462)">
<path d="M31 6C14.47 6 1 19.47 1 36C1 52.53 14.47 66 31 66C47.53 66 61 52.53 61 36C61 19.47 47.53 6 31 6ZM41.08 42.9C41.95 43.77 41.95 45.21 41.08 46.08C40.63 46.53 40.06 46.74 39.49 46.74C38.92 46.74 38.35 46.53 37.9 46.08L31 39.18L24.1 46.08C23.65 46.53 23.08 46.74 22.51 46.74C21.94 46.74 21.37 46.53 20.92 46.08C20.05 45.21 20.05 43.77 20.92 42.9L27.82 36L20.92 29.1C20.05 28.23 20.05 26.79 20.92 25.92C21.79 25.05 23.23 25.05 24.1 25.92L31 32.82L37.9 25.92C38.77 25.05 40.21 25.05 41.08 25.92C41.95 26.79 41.95 28.23 41.08 29.1L34.18 36L41.08 42.9Z" fill="#002535"/>
</g>
<defs>
<filter id="filter0_d_58_2462" x="0" y="0" width="68" height="68" filterUnits="userSpaceOnUse" color-interpolation-filters="sRGB">
<feFlood flood-opacity="0" result="BackgroundImageFix"/>
<feColorMatrix in="SourceAlpha" type="matrix" values="0 0 0 0 0 0 0 0 0 0 0 0 0 0 0 0 0 0 127 0" result="hardAlpha"/>
<feOffset dx="3" dy="-2"/>
<feGaussianBlur stdDeviation="2"/>
<feComposite in2="hardAlpha" operator="out"/>
<feColorMatrix type="matrix" values="0 0 0 0 0 0 0 0 0 0 0 0 0 0 0 0 0 0 0.5 0"/>
<feBlend mode="normal" in2="BackgroundImageFix" result="effect1_dropShadow_58_2462"/>
<feBlend mode="normal" in="SourceGraphic" in2="effect1_dropShadow_58_2462" result="shape"/>
</filter>
</defs>
</svg>
