<svg width="20" height="20" viewBox="0 0 20 20" fill="none" xmlns="http://www.w3.org/2000/svg">
<path d="M18.8608 5.09257C18.0209 4.17376 16.6177 3.71435 14.5821 3.71435H14.345V3.67525C14.345 2.03312 14.345 0 10.6296 0H9.12758C5.41217 0 5.41217 2.04289 5.41217 3.67525V3.72413H5.17502C3.12956 3.72413 1.73628 4.18353 0.896353 5.10235C-0.0819094 6.17756 -0.0522652 7.6242 0.0465492 8.6114L0.0564306 8.67983L0.132972 9.4748C0.147063 9.62122 0.226777 9.75347 0.351174 9.83401C0.588131 9.98738 0.984723 10.2402 1.22244 10.3708C1.36078 10.4588 1.509 10.537 1.65722 10.6152C3.34695 11.534 5.20466 12.1498 7.09201 12.4528C7.18095 13.3716 7.58609 14.4468 9.75011 14.4468C11.9141 14.4468 12.339 13.3814 12.4082 12.4333C14.424 12.1107 16.3707 11.4167 18.1296 10.4002C18.1889 10.3708 18.2284 10.3415 18.2778 10.3122C18.6698 10.093 19.0765 9.82297 19.4473 9.55847C19.5589 9.47871 19.6304 9.35555 19.6456 9.22017L19.6612 9.08058L19.7106 8.62118C19.7205 8.56253 19.7205 8.51366 19.7304 8.44524C19.8094 7.45803 19.7896 6.10913 18.8608 5.09257ZM10.9556 11.7882C10.9556 12.8243 10.9556 12.9807 9.74023 12.9807C8.52481 12.9807 8.52481 12.7949 8.52481 11.7979V10.5663H10.9556V11.7882ZM6.82521 3.71435V3.67525C6.82521 2.01357 6.82522 1.39777 9.12758 1.39777H10.6296C12.9319 1.39777 12.9319 2.02334 12.9319 3.67525V3.72413H6.82521V3.71435Z" fill="white"/>
<path d="M18.6457 11.6957C18.9951 11.5312 19.3976 11.8052 19.3626 12.1864L19.0079 16.0511C18.8004 18.006 17.9901 20 13.6422 20H6.11263C1.7648 20 0.954518 18.006 0.747007 16.0609L0.410337 12.3975C0.375712 12.0207 0.768954 11.747 1.1174 11.903C2.24331 12.4069 4.32152 13.3009 5.60529 13.6335C5.76765 13.6756 5.89896 13.7905 5.97006 13.9409C6.56983 15.2098 7.87065 15.8849 9.74896 15.8849C11.6088 15.8849 12.926 15.1838 13.5278 13.9118C13.599 13.7613 13.7305 13.6463 13.8929 13.6041C15.2561 13.2493 17.4681 12.2499 18.6457 11.6957Z" fill="white"/>
</svg>
