<svg width="20" height="20" viewBox="0 0 20 20" fill="none" xmlns="http://www.w3.org/2000/svg">
<path d="M16.2041 4.81689H17.5152C17.332 4.5566 17.1392 4.31559 16.9368 4.07458L16.2041 4.81689Z" fill="white"/>
<path d="M15.9259 3.05254C15.6849 2.8501 15.4439 2.65729 15.1836 2.47412V3.78521L15.9259 3.05254Z" fill="white"/>
<path d="M16.9472 4.07547L19.7911 1.23156C20.0707 0.951987 20.0707 0.489249 19.7911 0.209678C19.5115 -0.0698927 19.0488 -0.0698927 18.7692 0.209678L15.9253 3.05359C16.2916 3.37172 16.629 3.71877 16.9472 4.07547Z" fill="white"/>
<path d="M15.1854 1.68335C15.1854 1.2881 14.8577 0.960327 14.4624 0.960327C14.0768 0.960327 13.7683 1.26882 13.749 1.64479C14.2503 1.8858 14.7323 2.15573 15.1854 2.47387V1.68335Z" fill="white"/>
<path d="M19.0417 5.53943C19.0417 5.14418 18.714 4.81641 18.3187 4.81641H17.5186C17.8367 5.2695 18.1163 5.75152 18.3476 6.25282C18.7332 6.23354 19.0417 5.92505 19.0417 5.53943Z" fill="white"/>
<path d="M10.3633 13.0115H10.6525C11.0285 13.0115 11.3273 12.6741 11.3273 12.2596C11.3273 11.739 11.1827 11.6619 10.8549 11.5462L10.3633 11.3727V13.0115Z" fill="white"/>
<path d="M18.3553 6.25281C18.3456 6.25281 18.336 6.26245 18.3167 6.26245H14.4606C14.3642 6.26245 14.2774 6.24317 14.181 6.20461C14.0075 6.12749 13.8629 5.99252 13.7857 5.80935C13.7568 5.72259 13.7375 5.63583 13.7375 5.53942V1.68328C13.7375 1.67364 13.7472 1.66399 13.7472 1.64471C12.4939 1.05665 11.1057 0.719238 9.64037 0.719238C4.31889 0.719238 0 5.03812 0 10.3596C0 15.6811 4.31889 20 9.64037 20C14.9619 20 19.2807 15.6811 19.2807 10.3596C19.2807 8.89427 18.9433 7.50606 18.3553 6.25281ZM11.3274 10.1861C11.9444 10.3982 12.7735 10.8513 12.7735 12.2684C12.7735 13.4734 11.8191 14.4664 10.6526 14.4664H10.3634V14.7074C10.3634 15.1027 10.0356 15.4304 9.64037 15.4304C9.24512 15.4304 8.91734 15.1027 8.91734 14.7074V14.4664H8.84022C7.55805 14.4664 6.50725 13.3867 6.50725 12.0563C6.50725 11.6514 6.83502 11.3236 7.23028 11.3236C7.62553 11.3236 7.95331 11.6514 7.95331 12.0467C7.95331 12.5769 8.34856 13.0107 8.84022 13.0107H8.91734V10.8705L7.95331 10.5331C7.33632 10.321 6.50725 9.86795 6.50725 8.45082C6.50725 7.24577 7.46165 6.25281 8.62813 6.25281H8.91734V6.02144C8.91734 5.62619 9.24512 5.29841 9.64037 5.29841C10.0356 5.29841 10.3634 5.62619 10.3634 6.02144V6.26245H10.4405C11.7227 6.26245 12.7735 7.34217 12.7735 8.67254C12.7735 9.0678 12.4457 9.39557 12.0505 9.39557C11.6552 9.39557 11.3274 9.0678 11.3274 8.67254C11.3274 8.14232 10.9322 7.70851 10.4405 7.70851H10.3634V9.84867L11.3274 10.1861Z" fill="white"/>
<path d="M7.95312 8.46044C7.95312 8.98102 8.09773 9.05815 8.4255 9.17383L8.91716 9.34736V7.7085H8.62795C8.26162 7.7085 7.95312 8.04591 7.95312 8.46044Z" fill="white"/>
</svg>
