<svg width="19" height="20" viewBox="0 0 19 20" fill="none" xmlns="http://www.w3.org/2000/svg">
<path d="M18.2998 16.2393L17.3598 15.2993C17.8498 14.5593 18.1398 13.6694 18.1398 12.7094C18.1398 10.1095 16.0299 7.99963 13.43 7.99963C10.8301 7.99963 8.72021 10.1095 8.72021 12.7094C8.72021 15.3093 10.8301 17.4192 13.43 17.4192C14.39 17.4192 15.2699 17.1292 16.0199 16.6393L16.9599 17.5792C17.1498 17.7692 17.3898 17.8592 17.6398 17.8592C17.8898 17.8592 18.1298 17.7692 18.3198 17.5792C18.6698 17.2192 18.6698 16.6193 18.2998 16.2393Z" fill="white"/>
<path d="M17.1592 2.01991V4.23982C17.1592 5.04978 16.6593 6.05974 16.1593 6.56971L15.9793 6.72971C15.8393 6.8597 15.6293 6.8897 15.4493 6.8297C15.2493 6.75971 15.0493 6.70971 14.8493 6.65971C14.4094 6.54972 13.9394 6.49972 13.4594 6.49972C10.0095 6.49972 7.20969 9.29959 7.20969 12.7494C7.20969 13.8894 7.51967 15.0093 8.10963 15.9693C8.60961 16.8093 9.30958 17.5092 10.0695 17.9792C10.2995 18.1292 10.3895 18.4492 10.1895 18.6292C10.1195 18.6892 10.0495 18.7392 9.97955 18.7892L8.57961 19.6991C7.27968 20.5091 5.48976 19.5991 5.48976 17.9792V12.6295C5.48976 11.9195 5.08978 11.0095 4.6898 10.5095L0.899961 6.46972C0.399983 5.95974 0 5.04978 0 4.44981V2.11991C0 0.90996 0.899961 0 1.98991 0H15.1693C16.2593 0 17.1592 0.90996 17.1592 2.01991Z" fill="white"/>
</svg>
