<svg width="26" height="26" viewBox="0 0 26 26" fill="none" xmlns="http://www.w3.org/2000/svg">
<path d="M11.9893 23.9787C18.6109 23.9787 23.9787 18.6109 23.9787 11.9893C23.9787 5.3678 18.6109 0 11.9893 0C5.3678 0 0 5.3678 0 11.9893C0 18.6109 5.3678 23.9787 11.9893 23.9787Z" fill="#002535"/>
<path d="M24.3581 25.2389C24.1309 25.2389 23.9037 25.1506 23.7397 24.9865L21.3923 22.6391C21.0515 22.2984 21.0515 21.7431 21.3923 21.3897C21.733 21.049 22.2883 21.049 22.6417 21.3897L24.9891 23.7371C25.3298 24.0779 25.3298 24.6331 24.9891 24.9865C24.8124 25.1506 24.5852 25.2389 24.3581 25.2389Z" fill="#002535"/>
</svg>
