<svg width="20" height="20" viewBox="0 0 20 20" fill="none" xmlns="http://www.w3.org/2000/svg">
<path d="M18.6569 5.09257C17.8261 4.17376 16.4381 3.71435 14.4245 3.71435H14.1899V3.67525C14.1899 2.03312 14.1899 0 10.5146 0H9.0289C5.35366 0 5.35366 2.04289 5.35366 3.67525V3.72413H5.11907C3.09572 3.72413 1.7175 4.18353 0.886663 5.10235C-0.0810239 6.17755 -0.0517002 7.6242 0.0460459 8.6114L0.0558205 8.67983L0.131535 9.47479C0.145473 9.62122 0.224325 9.75347 0.347378 9.83401C0.581773 9.98738 0.974077 10.2402 1.20922 10.3708C1.34607 10.4588 1.49269 10.537 1.63931 10.6152C3.31077 11.534 5.14839 12.1498 7.01534 12.4528C7.10332 13.3716 7.50407 14.4468 9.6447 14.4468C11.7853 14.4468 12.2057 13.3814 12.2741 12.4333C14.2681 12.1107 16.1937 11.4167 17.9336 10.4002C17.9922 10.3708 18.0313 10.3415 18.0802 10.3122C18.468 10.093 18.8703 9.82297 19.237 9.55847C19.3475 9.4787 19.4181 9.35554 19.4332 9.22017L19.4486 9.08058L19.4975 8.62118C19.5073 8.56253 19.5073 8.51366 19.5171 8.44524C19.5953 7.45803 19.5757 6.10913 18.6569 5.09257ZM10.8372 11.7882C10.8372 12.8243 10.8372 12.9807 9.63493 12.9807C8.43265 12.9807 8.43265 12.7949 8.43265 11.7979V10.5663H10.8372V11.7882ZM6.75143 3.71435V3.67525C6.75143 2.01357 6.75143 1.39777 9.0289 1.39777H10.5146C12.7921 1.39777 12.7921 2.02334 12.7921 3.67525V3.72413H6.75143V3.71435Z" fill="#002535"/>
<path d="M18.4437 11.6957C18.7893 11.5312 19.1874 11.8052 19.1528 12.1864L18.8019 16.0511C18.5966 18.006 17.7951 20 13.4943 20H6.04608C1.74525 20 0.943729 18.006 0.738462 16.0609L0.405431 12.3975C0.371181 12.0207 0.760171 11.747 1.10485 11.903C2.21859 12.4069 4.27433 13.3009 5.54422 13.6335C5.70482 13.6756 5.83472 13.7905 5.90505 13.9409C6.49834 15.2098 7.7851 15.8849 9.64309 15.8849C11.4829 15.8849 12.7858 15.1838 13.3811 13.9118C13.4515 13.7613 13.5816 13.6463 13.7423 13.6041C15.0907 13.2493 17.2788 12.2499 18.4437 11.6957Z" fill="#002535"/>
</svg>
