<svg width="45" height="45" viewBox="0 0 45 45" fill="none" xmlns="http://www.w3.org/2000/svg">
<circle cx="22.5" cy="22.5" r="22.5" fill="#BFD2D9"/>
<path d="M27.6673 23.5203V28.8114C27.6673 29.2794 27.6153 29.7214 27.4983 30.1244C27.0173 32.0355 25.4313 33.2315 23.2473 33.2315H19.7112L15.7851 35.8445C15.2001 36.2475 14.4201 35.8185 14.4201 35.1165V33.2315C13.0941 33.2315 11.989 32.7895 11.222 32.0225C10.442 31.2425 10 30.1374 10 28.8114V23.5203C10 21.0503 11.534 19.3472 13.9001 19.1262C14.0691 19.1132 14.2381 19.1002 14.4201 19.1002H23.2473C25.8993 19.1002 27.6673 20.8683 27.6673 23.5203Z" fill="#002535"/>
<path d="M30.4757 27.6803C32.1267 27.6803 33.5178 27.1343 34.4798 26.1593C35.4548 25.1973 36.0008 23.8063 36.0008 22.1552V15.5251C36.0008 12.47 33.5308 10 30.4757 10H19.4255C16.3704 10 13.9004 12.47 13.9004 15.5251V16.5001C13.9004 16.8641 14.1864 17.1501 14.5504 17.1501H23.2476C26.7706 17.1501 29.6177 19.9972 29.6177 23.5203V27.0303C29.6177 27.3943 29.9037 27.6803 30.2677 27.6803H30.4757Z" fill="#002535"/>
</svg>
