<svg width="45" height="45" viewBox="0 0 45 45" fill="none" xmlns="http://www.w3.org/2000/svg">
<circle cx="22.5" cy="22.5" r="22.5" fill="#BFD2D9"/>
<path d="M32.5382 26.237L31.2382 24.079C30.9652 23.598 30.7182 22.688 30.7182 22.155V18.866C30.7182 15.811 28.9242 13.172 26.3372 11.937C25.6612 10.741 24.4132 10 22.9832 10C21.5662 10 20.2922 10.767 19.6162 11.976C17.0812 13.237 15.3262 15.85 15.3262 18.866V22.155C15.3262 22.688 15.0792 23.598 14.8062 24.066L13.4932 26.237C12.9732 27.108 12.8562 28.07 13.1812 28.954C13.4932 29.825 14.2342 30.501 15.1962 30.826C17.7182 31.684 20.3702 32.1 23.0222 32.1C25.6742 32.1 28.3262 31.684 30.8482 30.839C31.7582 30.54 32.4602 29.851 32.7982 28.954C33.1362 28.057 33.0452 27.069 32.5382 26.237Z" fill="#002535"/>
<path d="M26.6751 33.413C26.1291 34.921 24.6861 36 22.9961 36C21.9691 36 20.9551 35.584 20.2401 34.843C19.8241 34.453 19.5121 33.933 19.3301 33.4C19.4991 33.426 19.6681 33.439 19.8501 33.465C20.1491 33.504 20.4611 33.543 20.7731 33.569C21.5141 33.634 22.2681 33.673 23.0221 33.673C23.7631 33.673 24.5041 33.634 25.2321 33.569C25.5051 33.543 25.7781 33.53 26.0381 33.491C26.2461 33.465 26.4541 33.439 26.6751 33.413Z" fill="#002535"/>
</svg>
